<svg width="38" height="28" viewBox="0 0 38 28" fill="none" xmlns="http://www.w3.org/2000/svg">
<path d="M17.493 26.8765C17.6612 27.1208 17.8862 27.3205 18.1488 27.4585C18.4113 27.5965 18.7034 27.6685 19 27.6685C19.2966 27.6685 19.5887 27.5965 19.8512 27.4585C20.1138 27.3205 20.3388 27.1208 20.507 26.8765L37.007 3.04316C37.198 2.76826 37.31 2.44628 37.3308 2.1122C37.3517 1.77812 37.2806 1.44472 37.1252 1.14821C36.9699 0.851708 36.7363 0.603445 36.4497 0.430397C36.1632 0.257348 35.8347 0.166132 35.5 0.166659H2.50001C2.16605 0.168038 1.83879 0.260428 1.55342 0.433891C1.26805 0.607354 1.03536 0.855328 0.880382 1.15115C0.725403 1.44696 0.653996 1.77943 0.67384 2.1128C0.693684 2.44616 0.804028 2.76781 0.993006 3.04316L17.493 26.8765Z" fill="#C50000"/>
</svg>
