<svg width="128" height="128" viewBox="0 0 128 128" fill="none" xmlns="http://www.w3.org/2000/svg">
<path d="M93.46 39.45C100.17 37.96 108.91 31.3 110.24 28.02C111.02 26.1 107.13 23.1 106.09 21.89C103.71 19.13 104.67 17.77 105.59 14.48C106.64 10.74 104.15 6.60999 100.62 4.98999C97.09 3.36999 92.87 3.87999 89.32 5.45999C85.77 7.03999 82.74 9.57999 79.77 12.08C77.6 10.71 74.14 4.65999 68.54 8.58999C64.67 11.3 64.32 17.2 64.82 21.91C65.99 32.78 68.67 38.42 73.72 39.94C80.1 41.86 87.16 40.85 93.46 39.45Z" fill="#FFCA28"/>
<path d="M104.36 8.17999C103.51 22.83 89.22 32.55 82.44 36.83L86.84 40.61C86.84 40.61 89.63 40.67 93.45 39.45C100 37.37 109.57 31.49 110.23 28.02C111.2 22.97 106.02 24.07 104.85 20.08C104.24 17.97 107.82 13.98 104.36 8.17999ZM79.78 12.09C79.78 12.09 77.23 9.47999 75.34 8.28999C74.4 10.06 73.73 11.98 73.4 13.96C72.81 17.44 73.4 22.38 74.79 26.06C75.01 26.63 75.83 26.54 75.92 25.94C77.12 18.03 79.78 12.09 79.78 12.09Z" fill="#E2A610"/>
<path d="M61.96 38.16C61.96 38.16 30.77 41.53 16.7 68.61C2.62999 95.69 14.59 112.11 27.25 118.09C39.91 124.07 71.81 126.18 92.56 121.26C113.31 116.34 118.5 106.14 117.53 96.29C116.12 81.91 102.76 73.07 102.76 73.07C102.76 73.07 103.29 55.31 89.51 43.78C77.28 33.54 61.96 38.16 61.96 38.16Z" fill="#FFCA28"/>
<path d="M74.76 83.73C68.07 75.29 60.17 74.16 57.64 71.13C56.26 69.48 55.45 67.81 55.76 65.74C56.09 63.54 58.64 62.02 60.62 61.65C62.93 61.21 68.44 61.44 73.07 65.85C74.17 66.89 73.77 68.51 73.74 69.96C73.66 73.07 78.11 76.09 81.71 73.49C85.32 70.88 82.55 65.07 80.22 62.25C78.46 60.12 72.08 55.43 64.15 54.69C61.92 54.48 52.95 53.15 47.77 63C46.28 65.83 45.73 72.67 53.53 78.45C55.16 79.66 63.62 83.96 65.97 86.75C70.04 91.58 67.25 95.83 64.07 96.39C55.4 97.91 50.49 93.22 49.58 90.65C48.93 88.82 49.61 86.84 48.77 85.12C47.91 83.35 46.15 82.65 44.29 83.24C38.19 85.18 40.13 91.85 42.83 95.52C45.72 99.45 49.27 101.82 53.26 103.12C68.15 107.97 75.31 100.31 76.56 94.7C77.48 90.59 77.38 87.03 74.76 83.73Z" fill="#6B4B46"/>
<path d="M71.16 48.99C58.49 76.05 56.31 110.22 56.31 110.22" stroke="#6B4B46" stroke-width="5" stroke-miterlimit="10"/>
<path d="M81.67 31.96C90.11 34.71 91.98 42.34 91.37 44.42C90.64 46.86 81.29 37.36 67.39 37.93C62.53 38.13 63.94 35.15 66.19 33.43C69.16 31.16 74.15 29.52 81.67 31.96Z" fill="#6D4C41"/>
<path d="M81.67 31.96C90.11 34.71 91.98 42.34 91.37 44.42C90.64 46.86 81.29 37.36 67.39 37.93C62.53 38.13 63.94 35.15 66.19 33.43C69.16 31.16 74.15 29.52 81.67 31.96Z" fill="#6B4B46"/>
<path d="M96.49 58.86C97.55 58.13 101.11 59.39 102.11 66.36C102.6 69.77 102.75 73.07 102.75 73.07C102.75 73.07 98.55 69.3 97.16 66.65C95.41 63.3 94.73 60.06 96.49 58.86Z" fill="#E2A610"/>
</svg>
