<svg width="36" height="27" viewBox="0 0 36 27" fill="none" xmlns="http://www.w3.org/2000/svg">
<path d="M2.25003 26.25H33.75C34.069 26.249 34.3816 26.161 34.6542 25.9956C34.9269 25.8301 35.1492 25.5935 35.2974 25.311C35.4455 25.0286 35.5138 24.7111 35.495 24.3928C35.4761 24.0744 35.3707 23.7672 35.1903 23.5043L19.4403 0.754251C18.7875 -0.188999 17.216 -0.188999 16.5615 0.754251L0.811527 23.5043C0.629221 23.7667 0.522312 24.074 0.502417 24.3929C0.482521 24.7118 0.550399 25.03 0.698677 25.3131C0.846954 25.5961 1.06996 25.8331 1.34346 25.9983C1.61697 26.1634 1.93051 26.2505 2.25003 26.25Z" fill="#03AC00"/>
</svg>
